<svg version="1.1" xmlns="http://www.w3.org/2000/svg" viewBox="-6.000001000000001 -3.5240117753737357 12.000002000000002 7.0480235507474704" fill="none" stroke="black" stroke-width="0.6%" vector-effect="non-scaling-stroke">
    <path d="M 5 1.46604 A 5 1.05797 360 0 1 3.52267 2.21685 A 5 1.05797 360 0 1 -5 1.46604" />
    <path d="M -3.52267 -2.21685 A 5 1.05797 360 0 1 5 -1.46604 A 5 1.05797 360 0 1 3.52267 -0.71522 A 5 1.05797 360 0 1 -5 -1.46604 A 5 1.05797 360 0 1 -3.52267 -2.21685 Z" />
    <path d="M 2.1136 -1.01555 A 3 0.63478 360 0 1 -3 -1.46604 A 3 0.63478 360 0 1 -2.1136 -1.91652 A 3 0.63478 360 0 1 3 -1.46604 A 3 0.63478 360 0 1 2.1136 -1.01555 Z" />
    <path d="M 5 -1.46604 L 5 1.46604" />
    <path d="M -5 -1.46604 L -5 1.46604" />
</svg>